<?xml version="1.0" encoding="UTF-8" standalone="no"?>
<!-- Created with Inkscape (http://www.inkscape.org/) -->

<svg
   width="128"
   height="128"
   viewBox="0 0 128 128"
   version="1.1"
   id="svg5"
   inkscape:version="1.1.1 (3bf5ae0d25, 2021-09-20)"
   sodipodi:docname="128.svg"
   xmlns:inkscape="http://www.inkscape.org/namespaces/inkscape"
   xmlns:sodipodi="http://sodipodi.sourceforge.net/DTD/sodipodi-0.dtd"
   xmlns:xlink="http://www.w3.org/1999/xlink"
   xmlns="http://www.w3.org/2000/svg"
   xmlns:svg="http://www.w3.org/2000/svg">
  <sodipodi:namedview
     id="namedview7"
     pagecolor="#ffffff"
     bordercolor="#666666"
     borderopacity="1.0"
     inkscape:pageshadow="2"
     inkscape:pageopacity="0.0"
     inkscape:pagecheckerboard="0"
     inkscape:document-units="px"
     showgrid="false"
     inkscape:zoom="2.9958333"
     inkscape:cx="36.383866"
     inkscape:cy="63.25452"
     inkscape:window-width="1920"
     inkscape:window-height="1019"
     inkscape:window-x="0"
     inkscape:window-y="30"
     inkscape:window-maximized="1"
     inkscape:current-layer="layer4" />
  <defs
     id="defs2">
    <linearGradient
       id="linearGradient1045"
       inkscape:collect="always">
      <stop
         id="stop1041"
         offset="0"
         style="stop-color:#1a5fb4;stop-opacity:1" />
      <stop
         id="stop1043"
         offset="1"
         style="stop-color:#62a0ea;stop-opacity:1" />
    </linearGradient>
    <linearGradient
       id="linearGradient920"
       inkscape:collect="always">
      <stop
         id="stop916"
         offset="0"
         style="stop-color:#1a5fb4;stop-opacity:1" />
      <stop
         id="stop918"
         offset="1"
         style="stop-color:#99c1f1;stop-opacity:1" />
    </linearGradient>
    <linearGradient
       xlink:href="#linearGradient1036"
       id="linearGradient1099"
       gradientUnits="userSpaceOnUse"
       gradientTransform="translate(604.81684,170.58641)"
       x1="32"
       y1="236"
       x2="96"
       y2="236" />
    <linearGradient
       id="linearGradient1036">
      <stop
         style="stop-color:#d5d3cf;stop-opacity:1;"
         offset="0"
         id="stop1032" />
      <stop
         style="stop-color:#f6f5f4;stop-opacity:1"
         offset="1"
         id="stop1034" />
    </linearGradient>
    <radialGradient
       xlink:href="#linearGradient1069"
       id="radialGradient1103"
       gradientUnits="userSpaceOnUse"
       gradientTransform="matrix(0.88333331,0,0,0.88333331,-460.35018,463.11973)"
       cx="-244"
       cy="-76"
       fx="-244"
       fy="-76"
       r="32" />
    <linearGradient
       id="linearGradient1069">
      <stop
         style="stop-color:#d5d3cf;stop-opacity:1"
         offset="0"
         id="stop1065" />
      <stop
         style="stop-color:#949390;stop-opacity:1"
         offset="1"
         id="stop1067-1" />
    </linearGradient>
    <linearGradient
       gradientTransform="translate(-470.5864,432.81685)"
       xlink:href="#linearGradient1025"
       id="linearGradient1027"
       x1="64"
       y1="262.5"
       x2="64"
       y2="232"
       gradientUnits="userSpaceOnUse" />
    <linearGradient
       id="linearGradient1025">
      <stop
         style="stop-color:#9a9996;stop-opacity:1"
         offset="0"
         id="stop1021" />
      <stop
         style="stop-color:#77767b;stop-opacity:1"
         offset="1"
         id="stop1023" />
    </linearGradient>
    <inkscape:path-effect
       is_visible="true"
       id="path-effect35304-9"
       effect="spiro" />
    <clipPath
       id="clipPath1609-7"
       clipPathUnits="userSpaceOnUse">
      <path
         style="fill:#e74747;stroke:none;stroke-width:0.25px;stroke-linecap:butt;stroke-linejoin:miter;stroke-opacity:1"
         d="m 252,116 28,-28 v -8 h -36 v 36 z"
         id="path1611-5"
         inkscape:connector-curvature="0"
         sodipodi:nodetypes="cccccc" />
    </clipPath>
    <linearGradient
       gradientTransform="translate(-59.728831,21.285708)"
       gradientUnits="userSpaceOnUse"
       y2="117.6756"
       x2="156.53058"
       y1="70.5065"
       x1="6.4007959"
       id="linearGradient926"
       xlink:href="#linearGradient920"
       inkscape:collect="always" />
    <linearGradient
       gradientUnits="userSpaceOnUse"
       y2="236.00089"
       x2="-144.00085"
       y1="236.00089"
       x1="-263.99948"
       id="linearGradient1030"
       xlink:href="#linearGradient1025"
       inkscape:collect="always" />
    <linearGradient
       gradientTransform="translate(253.25966,-159.91126)"
       gradientUnits="userSpaceOnUse"
       y2="274.87158"
       x2="-177.88454"
       y1="287.39206"
       x1="-233.99329"
       id="linearGradient1047"
       xlink:href="#linearGradient1045"
       inkscape:collect="always" />
  </defs>
  <g
     inkscape:label="Layer 1"
     inkscape:groupmode="layer"
     id="layer1">
    <title
       id="title4162">Adwaita Icon Template</title>
    <g
       style="display:inline"
       inkscape:label="Splash Icon"
       id="layer4"
       inkscape:groupmode="layer"
       transform="translate(14.527428,-13.263742)">
      <g
         id="g1094"
         transform="matrix(0.80780967,0,0,0.80780967,7.1705389,15.953177)">
        <g
           style="fill:none;stroke:none"
           id="g912"
           transform="translate(-14.988958,12.087864)">
          <circle
             style="fill:none;stroke:none;stroke-width:1.622;stroke-miterlimit:4;stroke-dasharray:none;stroke-dashoffset:0;stroke-opacity:1"
             id="path61"
             cx="64.24865"
             cy="64.000877"
             r="59.7505" />
          <path
             style="fill:none;stroke:none;stroke-width:1.09347px;stroke-linecap:butt;stroke-linejoin:miter;stroke-opacity:1"
             d="m 7.8499613,83.731822 c 0,0 21.8203017,-29.312682 62.7760507,-1.63365 C 111.58176,109.7772 123.9985,64.280354 123.9985,64.280354"
             id="path904"
             sodipodi:nodetypes="csc" />
        </g>
        <path
           id="path928"
           d="M 76.197662,102.248 C 72.938837,101.83975 68.453956,100.41802 64.516487,98.545009 61.656804,97.184689 60.232116,96.360743 55.844132,93.529492 51.273429,90.580342 49.413867,89.506468 45.767861,87.710563 38.40301,84.082878 32.026569,82.270171 24.866374,81.76865 13.723365,80.98816 2.9023234,84.944864 -5.2655714,92.78637 -6.9779805,94.430351 -6.7109766,94.644249 -7.6876876,90.845999 -9.86782,82.367865 -10.146464,73.322195 -8.4899127,64.803246 -5.0445187,47.085032 6.4717664,31.873937 22.698503,23.608542 28.63829,20.582999 34.919818,18.652771 42.05555,17.660386 c 3.151973,-0.438354 11.193613,-0.432596 14.4073,0.01032 16.450446,2.267207 30.326952,10.364331 39.998672,23.339748 7.232878,9.703516 11.041028,20.621683 11.628468,33.3394 l 0.11843,2.563927 -0.64892,1.767102 c -0.93634,2.54982 -3.5954,7.837499 -4.99347,9.929791 -3.673618,5.497786 -7.898308,9.390043 -12.611638,11.619266 -4.01825,1.90047 -8.93633,2.62193 -13.75673,2.01806 z M 76.57989,49.245008 c 2.226441,-0.687677 4.09583,-2.536634 4.913167,-4.859469 0.305875,-0.86928 0.360996,-1.363678 0.305491,-2.740039 -0.05747,-1.425203 -0.150847,-1.856588 -0.61694,-2.850237 -1.469671,-3.133153 -4.676028,-4.919634 -7.978619,-4.445436 -5.134638,0.73725 -8.101937,6.106806 -5.960083,10.785231 1.617436,3.532946 5.570893,5.273178 9.336984,4.10995 z"
           style="fill:none;fill-opacity:1;fill-rule:evenodd;stroke:none;stroke-width:0.286732;stroke-miterlimit:4;stroke-dasharray:none;stroke-dashoffset:0;stroke-opacity:1" />
        <circle
           cx="49.259693"
           cy="76.088745"
           r="59.504131"
           id="circle1021"
           style="display:inline;vector-effect:none;fill:url(#linearGradient1047);fill-opacity:1;fill-rule:nonzero;stroke:none;stroke-width:0.99;stroke-linecap:butt;stroke-linejoin:miter;stroke-miterlimit:4;stroke-dasharray:0.99, 0.99;stroke-dashoffset:0;stroke-opacity:1;marker:none;marker-start:none;marker-mid:none;marker-end:none;paint-order:normal;enable-background:new" />
        <path
           d="M 33.823435,18.62167 A 59.504131,59.504131 0 0 0 -9.1274151,87.43245 c 12.4790705,-3.344641 28.5293201,-2.407647 48.6174701,7.953507 31.00682,15.992833 52.599527,9.484513 66.278395,-0.594283 a 59.504131,59.504131 0 0 0 0.99246,-34.110564 59.504131,59.504131 0 0 0 -72.877105,-42.075616 59.504131,59.504131 0 0 0 -0.0604,0.01618 z"
           style="display:inline;vector-effect:none;fill:#99c1f1;fill-opacity:1;fill-rule:nonzero;stroke:none;stroke-width:0.99;stroke-linecap:butt;stroke-linejoin:miter;stroke-miterlimit:4;stroke-dasharray:0.99, 0.99;stroke-dashoffset:0;stroke-opacity:1;marker:none;marker-start:none;marker-mid:none;marker-end:none;paint-order:normal;enable-background:new"
           id="circle1094" />
        <path
           id="path906"
           style="fill:#f9f06b;fill-opacity:1;stroke:none;stroke-width:3.75178;stroke-miterlimit:4;stroke-dasharray:none;stroke-dashoffset:0;stroke-opacity:1"
           d="M 84.475905,60.809748 A 17.596056,17.596056 0 0 1 66.879852,78.405804 17.596056,17.596056 0 0 1 49.283792,60.809748 17.596056,17.596056 0 0 1 66.879852,43.213692 17.596056,17.596056 0 0 1 84.475905,60.809748" />
      </g>
    </g>
  </g>
</svg>
